# xmcd
# 
# Track frame offsets:
#     150
#     15530
#     25909
#     41194
#     59723
#     72195
#     89707
#     105520
#     116047
#     132949
#     144263
#     159619
#     186023
#     210703
#     239631
#     249741
#     260903
#     274336
#     290565
#     299132
#     312058
#     323833
# 
# Disc length: 4542
# 
# Revision: 1
# Processed by: cddbd v1.5.2PL0 Copyright (c) Steve Scherf et al.
# Submitted via: fre:ac v1.0.31
# 
DISCID=6611bc16
DTITLE=Various Artist - Love, Poetry and Revolution 2/3
DYEAR=0
DGENRE=
TTITLE0=Various Artist - The Spencer Davis Group - Morning Sun
TTITLE1=Various Artist - The Mirage - Ebaneezer Beaver
TTITLE2=Various Artist - West Coast Consortium - Amanda Jane
TTITLE3=Various Artist - Jason Crest - Teagarden Lane
TTITLE4=Various Artist - The Flies - Winter Afternoon
TTITLE5=Various Artist - The Deviants - You've Got To Hold On
TTITLE6=Various Artist - The Crazy World Of Arthur Brown - Nightmare
TTITLE7=Various Artist - Sun Dragon - Peacock Dress
TTITLE8=Various Artist - Peter Howell and John Ferdinando - Jabberwocky
TTITLE9=Various Artist - Forever Amber - Bits Of Your Life, Bits Of My Life
TTITLE10=Various Artist - Please - Strange Ways
TTITLE11=Various Artist - The Liverpool Scene - We'll All Be Spacemen Before We Die
TTITLE12=Various Artist - Serendipity - Castles (full-length version)
TTITLE13=Various Artist - The Sorrows - The Makers
TTITLE14=Various Artist - Second Hand - A Fairy Tale
TTITLE15=Various Artist - Information - Oh Strange Man
TTITLE16=Various Artist - Shy Limbs - Love
TTITLE17=Various Artist - Hardin-york - Tomorrow Today
TTITLE18=Various Artist - Infinity - Venetian Glass
TTITLE19=Various Artist - Mic Read - What The Dickens
TTITLE20=Various Artist - Respect - Santa Lucia
TTITLE21=Various Artist - Fat Mattress - Iridescent Butterfly
EXTD=
EXTT0=
EXTT1=
EXTT2=
EXTT3=
EXTT4=
EXTT5=
EXTT6=
EXTT7=
EXTT8=
EXTT9=
EXTT10=
EXTT11=
EXTT12=
EXTT13=
EXTT14=
EXTT15=
EXTT16=
EXTT17=
EXTT18=
EXTT19=
EXTT20=
EXTT21=
PLAYORDER=
